<svg width="273" height="122" viewBox="0 0 273 122" fill="none" xmlns="http://www.w3.org/2000/svg">
<path d="M46.7407 14.208L58.214 20.8456V34.1209L46.7407 40.7585L35.2671 34.1209V20.8456L46.7407 14.208Z" fill="#E5243B"/>
<path d="M59.9891 36.4141L71.4625 43.0517V56.327L59.9891 62.9648L48.5156 56.327V43.0517L59.9891 36.4141Z" fill="#3F7E44"/>
<path d="M33.492 36.4141L44.9656 43.0517V56.327L33.492 62.9648L22.0187 56.327V43.0517L33.492 36.4141Z" fill="#FD9D24"/>
<path d="M20.2436 58.4995L31.7171 65.1371V78.4124L20.2436 85.05L8.77008 78.4124V65.1371L20.2436 58.4995Z" fill="#DD1367"/>
<path d="M33.492 81.0674L44.9656 87.705V100.98L33.492 107.618L22.0187 100.98V87.705L33.492 81.0674Z" fill="#3F7E44"/>
<path d="M59.9891 81.0674L71.4625 87.705V100.98L59.9891 107.618L48.5156 100.98V87.705L59.9891 81.0674Z" fill="#E5243B"/>
<path d="M86.486 81.0674L97.9596 87.705V100.98L86.486 107.618L75.0125 100.98V87.705L86.486 81.0674Z" fill="#BF8B2E"/>
<path d="M46.7407 58.4995L58.214 65.1371V78.4124L46.7407 85.05L35.2671 78.4124V65.1371L46.7407 58.4995Z" fill="#19486A"/>
<path d="M73.2375 58.4995L84.7111 65.1371V78.4124L73.2375 85.05L61.764 78.4124V65.1371L73.2375 58.4995Z" fill="#56C02B"/>
<path d="M99.7344 58.4995L111.208 65.1371V78.4124L99.7344 85.05L88.2609 78.4124V65.1371L99.7344 58.4995Z" fill="#FD6925"/>
<path d="M86.486 36.4141L97.9596 43.0517V56.327L86.486 62.9648L75.0125 56.327V43.0517L86.486 36.4141Z" fill="#0A97D9"/>
<path d="M73.2375 14.208L84.7111 20.8456V34.1209L73.2375 40.7585L61.764 34.1209V20.8456L73.2375 14.208Z" fill="#FCC30B"/>
<path d="M146.469 48.2041C146.469 50.4577 146.043 52.375 145.19 53.9559C144.344 55.5368 143.189 56.7443 141.726 57.5786C140.269 58.406 138.631 58.8196 136.811 58.8196C134.978 58.8196 133.334 58.4026 131.877 57.5683C130.42 56.7342 129.269 55.5267 128.423 53.9457C127.577 52.3648 127.154 50.4509 127.154 48.2041C127.154 45.9503 127.577 44.0332 128.423 42.4521C129.269 40.8712 130.42 39.6671 131.877 38.8396C133.334 38.0053 134.978 37.5884 136.811 37.5884C138.631 37.5884 140.269 38.0053 141.726 38.8396C143.189 39.6671 144.344 40.8712 145.19 42.4521C146.043 44.0332 146.469 45.9503 146.469 48.2041ZM142.048 48.2041C142.048 46.7443 141.83 45.5131 141.394 44.5107C140.964 43.5084 140.356 42.7482 139.571 42.2301C138.785 41.7121 137.865 41.4532 136.811 41.4532C135.757 41.4532 134.838 41.7121 134.052 42.2301C133.267 42.7482 132.656 43.5084 132.219 44.5107C131.79 45.5131 131.575 46.7443 131.575 48.2041C131.575 49.6639 131.79 50.8949 132.219 51.8972C132.656 52.8996 133.267 53.6598 134.052 54.1779C134.838 54.6959 135.757 54.9548 136.811 54.9548C137.865 54.9548 138.785 54.6959 139.571 54.1779C140.356 53.6598 140.964 52.8996 141.394 51.8972C141.83 50.8949 142.048 49.6639 142.048 48.2041ZM157.01 58.5371H149.699V37.8708H157.071C159.145 37.8708 160.931 38.2846 162.428 39.1121C163.926 39.9327 165.077 41.1135 165.883 42.654C166.695 44.1946 167.101 46.0378 167.101 48.1838C167.101 50.3366 166.695 52.1865 165.883 53.7339C165.077 55.281 163.919 56.4684 162.408 57.2959C160.904 58.1234 159.105 58.5371 157.01 58.5371ZM154.06 54.7934H156.829C158.118 54.7934 159.203 54.5648 160.082 54.1073C160.968 53.6429 161.633 52.9267 162.076 51.9579C162.526 50.9824 162.751 49.7243 162.751 48.1838C162.751 46.6567 162.526 45.4089 162.076 44.4401C161.633 43.4713 160.972 42.7582 160.092 42.3007C159.213 41.8434 158.128 41.6146 156.839 41.6146H154.06V54.7934ZM181.52 43.8144C181.439 43.0005 181.093 42.368 180.483 41.9173C179.871 41.4666 179.042 41.2412 177.995 41.2412C177.283 41.2412 176.682 41.3422 176.192 41.5439C175.702 41.739 175.326 42.0114 175.064 42.3613C174.809 42.7112 174.682 43.1081 174.682 43.552C174.668 43.9221 174.746 44.245 174.913 44.5208C175.088 44.7966 175.326 45.0355 175.628 45.2372C175.931 45.4324 176.28 45.6038 176.676 45.752C177.072 45.8931 177.495 46.0143 177.945 46.1151L179.798 46.5592C180.697 46.7609 181.523 47.0301 182.275 47.3664C183.027 47.7028 183.678 48.1166 184.229 48.6076C184.779 49.0988 185.206 49.6774 185.508 50.3433C185.816 51.0093 185.974 51.7728 185.981 52.634C185.974 53.8987 185.652 54.9952 185.014 55.9236C184.383 56.8452 183.47 57.5617 182.275 58.073C181.087 58.5775 179.653 58.8298 177.975 58.8298C176.31 58.8298 174.86 58.5741 173.624 58.0628C172.396 57.5517 171.436 56.7949 170.744 55.7923C170.059 54.7834 169.7 53.5353 169.667 52.0486H173.886C173.933 52.7416 174.131 53.3201 174.48 53.7843C174.836 54.2418 175.31 54.5882 175.9 54.8237C176.498 55.0524 177.172 55.1668 177.925 55.1668C178.663 55.1668 179.304 55.0592 179.848 54.8438C180.399 54.6286 180.825 54.3293 181.127 53.9457C181.429 53.5622 181.58 53.1216 181.58 52.6239C181.58 52.1596 181.443 51.7696 181.167 51.4534C180.899 51.137 180.503 50.868 179.979 50.646C179.462 50.424 178.827 50.2222 178.076 50.0405L175.83 49.4754C174.091 49.0516 172.718 48.389 171.711 47.4876C170.704 46.5861 170.204 45.3718 170.21 43.8447C170.204 42.5934 170.536 41.5001 171.208 40.5651C171.885 39.63 172.815 38.9001 173.997 38.3753C175.179 37.8508 176.521 37.5884 178.025 37.5884C179.556 37.5884 180.892 37.8508 182.033 38.3753C183.181 38.9001 184.074 39.63 184.712 40.5651C185.35 41.5001 185.679 42.5834 185.699 43.8144H181.52ZM127.516 66.287H132.894L138.574 80.1722H138.815L144.495 66.287H149.873V86.9533H145.643V73.502H145.472L140.135 86.8523H137.255L131.917 73.4516H131.746V86.9533H127.516V66.287ZM157.021 86.9533H152.348L159.468 66.287H165.087L172.197 86.9533H167.524L162.358 71.0096H162.197L157.021 86.9533ZM156.728 78.8301H167.766V82.2408H156.728V78.8301ZM174.679 86.9533V66.287H182.816C184.381 66.287 185.713 66.5863 186.814 67.1851C187.915 67.7771 188.755 68.6012 189.332 69.6573C189.917 70.7068 190.208 71.9177 190.208 73.2901C190.208 74.6626 189.913 75.8735 189.321 76.923C188.731 77.9723 187.875 78.7897 186.754 79.3749C185.639 79.9603 184.29 80.253 182.705 80.253H177.519V76.7513H182.001C182.84 76.7513 183.531 76.6068 184.075 76.3175C184.626 76.0214 185.035 75.6145 185.304 75.0964C185.579 74.5716 185.717 73.9696 185.717 73.2901C185.717 72.6039 185.579 72.0053 185.304 71.494C185.035 70.976 184.626 70.5757 184.075 70.2931C183.525 70.0038 182.826 69.8593 181.98 69.8593H179.04V86.9533H174.679ZM193.04 86.9533V66.287H201.177C202.742 66.287 204.075 66.5863 205.175 67.1851C206.276 67.7771 207.115 68.6012 207.694 69.6573C208.278 70.7068 208.569 71.9177 208.569 73.2901C208.569 74.6626 208.274 75.8735 207.682 76.923C207.092 77.9723 206.236 78.7897 205.115 79.3749C204.001 79.9603 202.651 80.253 201.067 80.253H195.879V76.7513H200.362C201.201 76.7513 201.893 76.6068 202.436 76.3175C202.986 76.0214 203.396 75.6145 203.665 75.0964C203.941 74.5716 204.077 73.9696 204.077 73.2901C204.077 72.6039 203.941 72.0053 203.665 71.494C203.396 70.976 202.986 70.5757 202.436 70.2931C201.886 70.0038 201.188 69.8593 200.341 69.8593H197.401V86.9533H193.04ZM215.763 66.287V86.9533H211.401V66.287H215.763ZM236.601 66.287V86.9533H232.835L223.862 73.9461H223.711V86.9533H219.349V66.287H223.178L232.078 79.2842H232.26V66.287H236.601ZM253.879 72.9672C253.739 72.4762 253.54 72.0422 253.285 71.6654C253.03 71.282 252.718 70.9592 252.349 70.6968C251.986 70.4276 251.57 70.2224 251.1 70.0813C250.636 69.94 250.122 69.8693 249.559 69.8693C248.506 69.8693 247.579 70.1317 246.78 70.6564C245.987 71.1812 245.369 71.9446 244.927 72.947C244.482 73.9427 244.261 75.1604 244.261 76.6C244.261 78.0395 244.481 79.2641 244.917 80.273C245.352 81.2822 245.97 82.0525 246.77 82.5838C247.568 83.1086 248.511 83.371 249.598 83.371C250.585 83.371 251.428 83.1961 252.126 82.8462C252.831 82.4897 253.368 81.9886 253.739 81.3428C254.115 80.6968 254.302 79.9334 254.302 79.0521L255.189 79.1832H249.871V75.8935H258.501V78.497C258.501 80.3134 258.119 81.8742 257.354 83.1792C256.588 84.4777 255.535 85.48 254.191 86.1864C252.848 86.886 251.311 87.2357 249.579 87.2357C247.645 87.2357 245.948 86.8087 244.482 85.9544C243.019 85.0932 241.879 83.8722 241.059 82.2913C240.248 80.7036 239.841 78.82 239.841 76.6403C239.841 74.9653 240.083 73.4717 240.565 72.16C241.057 70.8413 241.741 69.7246 242.62 68.8098C243.499 67.8948 244.524 67.1986 245.692 66.721C246.861 66.2432 248.126 66.0045 249.489 66.0045C250.657 66.0045 251.744 66.176 252.752 66.5191C253.758 66.8555 254.652 67.3331 255.431 67.952C256.215 68.5709 256.856 69.3076 257.354 70.162C257.851 71.0096 258.168 71.9446 258.31 72.9672H253.879Z" fill="#0E0F14"/>
</svg>
