<svg width="1444" height="644" viewBox="0 0 1444 644" fill="none" xmlns="http://www.w3.org/2000/svg">
<path d="M247.229 75L307.916 110.038V180.114L247.229 215.152L186.541 180.114V110.038L247.229 75Z" fill="#E5243B"/>
<path d="M317.305 192.218L377.992 227.256V297.332L317.305 332.371L256.617 297.332V227.256L317.305 192.218Z" fill="#3F7E44"/>
<path d="M177.152 192.218L237.84 227.256V297.332L177.152 332.371L116.465 297.332V227.256L177.152 192.218Z" fill="#FD9D24"/>
<path d="M107.076 308.8L167.764 343.838V413.914L107.076 448.952L46.3884 413.914V343.838L107.076 308.8Z" fill="#DD1367"/>
<path d="M177.152 427.929L237.84 462.967V533.043L177.152 568.081L116.465 533.043V462.967L177.152 427.929Z" fill="#3F7E44"/>
<path d="M317.305 427.929L377.992 462.967V533.043L317.305 568.081L256.617 533.043V462.967L317.305 427.929Z" fill="#E5243B"/>
<path d="M457.457 427.929L518.145 462.967V533.043L457.457 568.081L396.769 533.043V462.967L457.457 427.929Z" fill="#BF8B2E"/>
<path d="M247.229 308.8L307.916 343.838V413.914L247.229 448.952L186.541 413.914V343.838L247.229 308.8Z" fill="#19486A"/>
<path d="M387.381 308.8L448.069 343.838V413.914L387.381 448.952L326.693 413.914V343.838L387.381 308.8Z" fill="#56C02B"/>
<path d="M527.533 308.8L588.221 343.838V413.914L527.533 448.952L466.845 413.914V343.838L527.533 308.8Z" fill="#FD6925"/>
<path d="M457.457 192.218L518.145 227.256V297.332L457.457 332.371L396.769 297.332V227.256L457.457 192.218Z" fill="#0A97D9"/>
<path d="M387.381 75L448.069 110.038V180.114L387.381 215.152L326.693 180.114V110.038L387.381 75Z" fill="#FCC30B"/>
<path d="M774.73 254.455C774.73 266.351 772.475 276.472 767.965 284.817C763.491 293.162 757.383 299.536 749.641 303.94C741.935 308.308 733.271 310.491 723.647 310.491C713.952 310.491 705.252 308.29 697.546 303.886C689.84 299.483 683.75 293.109 679.276 284.763C674.801 276.418 672.564 266.315 672.564 254.455C672.564 242.558 674.801 232.438 679.276 224.092C683.75 215.747 689.84 209.391 697.546 205.023C705.252 200.619 713.952 198.418 723.647 198.418C733.271 198.418 741.935 200.619 749.641 205.023C757.383 209.391 763.491 215.747 767.965 224.092C772.475 232.438 774.73 242.558 774.73 254.455ZM751.346 254.455C751.346 246.749 750.192 240.25 747.884 234.959C745.611 229.668 742.397 225.655 738.242 222.92C734.087 220.186 729.222 218.819 723.647 218.819C718.072 218.819 713.207 220.186 709.052 222.92C704.897 225.655 701.665 229.668 699.357 234.959C697.085 240.25 695.948 246.749 695.948 254.455C695.948 262.161 697.085 268.659 699.357 273.95C701.665 279.241 704.897 283.254 709.052 285.989C713.207 288.723 718.072 290.09 723.647 290.09C729.222 290.09 734.087 288.723 738.242 285.989C742.397 283.254 745.611 279.241 747.884 273.95C750.192 268.659 751.346 262.161 751.346 254.455ZM830.487 309H791.816V199.909H830.807C841.78 199.909 851.226 202.093 859.145 206.461C867.064 210.793 873.154 217.026 877.416 225.158C881.713 233.29 883.861 243.02 883.861 254.348C883.861 265.712 881.713 275.477 877.416 283.645C873.154 291.812 867.029 298.08 859.039 302.448C851.084 306.816 841.567 309 830.487 309ZM814.88 289.238H829.529C836.347 289.238 842.082 288.031 846.734 285.616C851.421 283.165 854.937 279.384 857.281 274.27C859.66 269.121 860.85 262.48 860.85 254.348C860.85 246.287 859.66 239.7 857.281 234.586C854.937 229.472 851.439 225.708 846.787 223.293C842.135 220.879 836.4 219.671 829.582 219.671H814.88V289.238ZM960.126 231.283C959.7 226.987 957.871 223.648 954.64 221.269C951.408 218.89 947.022 217.7 941.483 217.7C937.718 217.7 934.54 218.233 931.948 219.298C929.355 220.328 927.367 221.766 925.982 223.613C924.632 225.46 923.958 227.555 923.958 229.898C923.887 231.852 924.295 233.556 925.183 235.012C926.106 236.468 927.367 237.729 928.965 238.794C930.563 239.824 932.409 240.729 934.505 241.511C936.6 242.256 938.837 242.896 941.216 243.428L951.017 245.772C955.776 246.837 960.144 248.258 964.121 250.033C968.098 251.809 971.543 253.993 974.455 256.585C977.367 259.178 979.622 262.232 981.22 265.747C982.853 269.263 983.688 273.293 983.723 277.839C983.688 284.515 981.983 290.303 978.61 295.204C975.272 300.069 970.442 303.851 964.121 306.55C957.836 309.213 950.254 310.545 941.376 310.545C932.569 310.545 924.899 309.195 918.365 306.496C911.866 303.798 906.788 299.803 903.13 294.511C899.508 289.185 897.608 282.597 897.431 274.749H919.75C919.998 278.407 921.046 281.461 922.892 283.911C924.775 286.326 927.278 288.155 930.403 289.398C933.564 290.605 937.132 291.209 941.11 291.209C945.016 291.209 948.407 290.641 951.284 289.504C954.196 288.368 956.451 286.788 958.049 284.763C959.647 282.739 960.446 280.413 960.446 277.786C960.446 275.335 959.718 273.276 958.262 271.607C956.841 269.937 954.746 268.517 951.976 267.345C949.242 266.173 945.886 265.108 941.909 264.149L930.03 261.166C920.833 258.929 913.571 255.431 908.244 250.673C902.917 245.914 900.272 239.504 900.307 231.443C900.272 224.838 902.029 219.067 905.581 214.131C909.167 209.195 914.086 205.342 920.336 202.572C926.586 199.803 933.688 198.418 941.642 198.418C949.739 198.418 956.806 199.803 962.843 202.572C968.915 205.342 973.638 209.195 977.012 214.131C980.385 219.067 982.125 224.785 982.232 231.283H960.126ZM674.482 349.909H702.926L732.969 423.205H734.247L764.29 349.909H792.734V459H770.362V387.995H769.457L741.225 458.467H725.991L697.759 387.729H696.854V459H674.482V349.909ZM830.541 459H805.825L843.485 349.909H873.208L910.814 459H886.098L858.772 374.838H857.92L830.541 459ZM828.996 416.12H887.377V434.124H828.996V416.12ZM923.944 459V349.909H966.984C975.258 349.909 982.307 351.489 988.131 354.65C993.955 357.775 998.394 362.125 1001.45 367.7C1004.54 373.24 1006.08 379.632 1006.08 386.876C1006.08 394.121 1004.52 400.513 1001.39 406.053C998.27 411.592 993.742 415.907 987.812 418.996C981.917 422.086 974.779 423.631 966.398 423.631H938.966V405.147H962.67C967.108 405.147 970.766 404.384 973.643 402.857C976.555 401.294 978.721 399.146 980.141 396.411C981.597 393.641 982.325 390.463 982.325 386.876C982.325 383.254 981.597 380.094 980.141 377.395C978.721 374.661 976.555 372.548 973.643 371.056C970.731 369.529 967.037 368.766 962.563 368.766H947.009V459H923.944ZM1021.06 459V349.909H1064.1C1072.38 349.909 1079.43 351.489 1085.25 354.65C1091.07 357.775 1095.51 362.125 1098.57 367.7C1101.66 373.24 1103.2 379.632 1103.2 386.876C1103.2 394.121 1101.64 400.513 1098.51 406.053C1095.39 411.592 1090.86 415.907 1084.93 418.996C1079.04 422.086 1071.9 423.631 1063.52 423.631H1036.08V405.147H1059.79C1064.23 405.147 1067.89 404.384 1070.76 402.857C1073.67 401.294 1075.84 399.146 1077.26 396.411C1078.72 393.641 1079.44 390.463 1079.44 386.876C1079.44 383.254 1078.72 380.094 1077.26 377.395C1075.84 374.661 1073.67 372.548 1070.76 371.056C1067.85 369.529 1064.16 368.766 1059.68 368.766H1044.13V459H1021.06ZM1141.25 349.909V459H1118.18V349.909H1141.25ZM1251.47 349.909V459H1231.55L1184.09 390.339H1183.29V459H1160.22V349.909H1180.47L1227.55 418.517H1228.51V349.909H1251.47ZM1342.86 385.172C1342.12 382.58 1341.07 380.289 1339.72 378.3C1338.37 376.276 1336.72 374.572 1334.77 373.187C1332.85 371.766 1330.65 370.683 1328.16 369.938C1325.71 369.192 1322.99 368.819 1320.01 368.819C1314.44 368.819 1309.54 370.204 1305.31 372.974C1301.12 375.744 1297.85 379.774 1295.51 385.065C1293.16 390.321 1291.99 396.749 1291.99 404.348C1291.99 411.947 1293.15 418.411 1295.46 423.737C1297.76 429.064 1301.03 433.13 1305.26 435.935C1309.48 438.705 1314.47 440.09 1320.22 440.09C1325.44 440.09 1329.9 439.167 1333.59 437.32C1337.32 435.438 1340.16 432.793 1342.12 429.384C1344.11 425.974 1345.1 421.944 1345.1 417.292L1349.79 417.984H1321.66V400.619H1367.31V414.362C1367.31 423.95 1365.29 432.189 1361.24 439.078C1357.19 445.932 1351.62 451.223 1344.51 454.952C1337.41 458.645 1329.28 460.491 1320.12 460.491C1309.89 460.491 1300.91 458.237 1293.16 453.727C1285.42 449.181 1279.39 442.736 1275.05 434.391C1270.76 426.01 1268.61 416.067 1268.61 404.561C1268.61 395.719 1269.89 387.835 1272.44 380.911C1275.04 373.95 1278.66 368.055 1283.31 363.226C1287.96 358.396 1293.38 354.721 1299.56 352.2C1305.74 349.678 1312.43 348.418 1319.64 348.418C1325.82 348.418 1331.57 349.323 1336.9 351.134C1342.22 352.91 1346.95 355.431 1351.07 358.698C1355.22 361.965 1358.61 365.854 1361.24 370.364C1363.87 374.838 1365.55 379.774 1366.3 385.172H1342.86Z" fill="white"/>
</svg>
