<?xml version="1.0" ?><svg style="enable-background:new 0 0 64 64;" version="1.1" viewBox="0 0 64 64" xml:space="preserve" xmlns="http://www.w3.org/2000/svg" xmlns:xlink="http://www.w3.org/1999/xlink"><style type="text/css">
	.st0{fill:#0072FF;}
</style><g id="GUIDES_64"/><g id="Layer_3"/><g id="Layer_2"><path class="st0" d="M32,60c4.3,0,21.6-17.9,21.6-34.1C53.6,13.8,43.9,4,32,4c-11.9,0-21.6,9.8-21.6,21.9C10.4,42.1,27.7,60,32,60z    M20.2,24c0-1.6,0.3-3.2,0.9-4.6c0.4-0.9,1.6-1,2.1-0.2c0.8,1.3,2.3,2.2,4,2.2c2.6,0,4.8-2.2,4.8-4.8c0-1.1-0.3-2-0.9-2.8   C30.5,13.1,31,12,32,12c0,0,0,0,0,0c6.5,0,11.8,5.4,11.8,12c0,6.6-5.3,12-11.8,12C25.5,36,20.2,30.6,20.2,24z"/></g></svg>